<?xml version="1.0" standalone="no"?>
<!DOCTYPE svg PUBLIC "-//W3C//DTD SVG 20010904//EN"
 "http://www.w3.org/TR/2001/REC-SVG-20010904/DTD/svg10.dtd">
<svg version="1.0" xmlns="http://www.w3.org/2000/svg"
 width="2560.000000pt" height="452.000000pt" viewBox="0 0 2560.000000 452.000000"
 preserveAspectRatio="xMidYMid meet">

<g transform="translate(0.000000,452.000000) scale(0.100000,-0.100000)"
fill="#000000" stroke="none">
<path d="M2348 4424 c-83 -163 -112 -284 -112 -469 0 -174 29 -304 99 -445 18
-36 173 -308 344 -604 172 -296 323 -564 336 -596 117 -277 106 -590 -30 -860
-24 -48 -49 -91 -54 -94 -5 -3 -14 15 -20 41 -20 79 -68 194 -119 283 -27 47
-235 411 -464 810 -228 399 -425 744 -437 768 -12 23 -37 87 -55 142 l-33 99
-29 -52 c-97 -174 -128 -299 -128 -502 0 -169 19 -264 79 -404 18 -42 172
-318 343 -613 171 -296 322 -559 335 -585 66 -131 98 -279 98 -448 0 -185 -42
-348 -132 -505 l-32 -54 -32 94 c-44 133 -67 175 -484 894 -203 351 -384 672
-401 713 -42 101 -67 204 -81 334 -7 60 -15 109 -19 109 -22 0 -252 -76 -346
-113 -522 -210 -858 -513 -950 -857 -26 -97 -24 -263 4 -363 149 -525 832
-928 1795 -1058 195 -26 646 -37 863 -20 582 45 1120 209 1489 456 263 175
421 361 495 583 71 211 46 416 -74 614 -180 297 -572 553 -1077 703 -68 21
-126 39 -128 41 -2 2 -10 44 -17 94 -28 185 -45 221 -468 964 -450 791 -439
770 -481 895 l-32 94 -45 -89z"/>
<path d="M6500 3304 c-174 -22 -326 -66 -455 -132 -71 -37 -109 -65 -181 -137
-146 -144 -200 -277 -211 -515 -19 -449 228 -741 812 -960 152 -57 416 -189
497 -249 82 -61 140 -133 168 -208 18 -49 21 -74 18 -158 -3 -88 -7 -107 -33
-153 -81 -148 -250 -218 -550 -229 -259 -9 -557 41 -777 130 l-88 35 -19 -61
c-31 -101 -51 -217 -54 -307 l-2 -85 84 -34 c221 -88 458 -125 796 -125 258 0
337 9 512 60 444 128 677 458 633 893 -28 267 -146 450 -405 623 -105 70 -315
174 -500 249 -326 131 -459 213 -538 332 -50 75 -71 154 -64 243 7 100 37 163
108 228 98 91 229 128 454 127 208 0 444 -35 639 -95 44 -14 83 -23 87 -21 18
11 75 278 81 379 3 49 3 49 -37 63 -76 27 -230 64 -350 84 -92 16 -175 22
-355 24 -129 2 -251 1 -270 -1z"/>
<path d="M13350 3273 c-72 -7 -168 -25 -243 -45 l-78 -20 3 -1262 3 -1261 22
-78 c38 -133 78 -204 162 -288 57 -57 95 -85 151 -112 201 -96 500 -113 747
-41 48 14 88 26 89 27 3 3 41 274 50 349 l6 57 -58 -19 c-98 -30 -204 -42
-330 -38 -103 3 -127 7 -174 29 -96 46 -155 124 -179 237 -7 36 -11 243 -11
637 l0 585 364 0 364 0 6 28 c8 37 36 314 36 352 l0 30 -385 0 -385 0 0 420 0
420 -62 -2 c-35 0 -79 -3 -98 -5z"/>
<path d="M21205 3269 c-44 -5 -113 -16 -152 -24 l-73 -16 0 -366 0 -366 -47 6
c-200 25 -320 29 -461 18 -340 -27 -574 -119 -766 -301 -241 -229 -359 -609
-326 -1049 32 -416 181 -713 447 -891 263 -177 682 -198 930 -48 61 37 149
121 197 187 l31 43 8 -78 c4 -44 10 -107 13 -142 l6 -62 221 2 222 3 3 1548 2
1547 -87 -1 c-49 -1 -124 -5 -168 -10z m-336 -1194 c52 -8 98 -18 102 -21 5
-3 9 -311 9 -684 l0 -679 -46 -32 c-122 -84 -307 -141 -454 -141 -291 1 -483
156 -567 458 -27 95 -28 108 -27 319 0 194 3 229 22 300 65 236 197 389 396
462 123 45 359 52 565 18z"/>
<path d="M9023 2520 c-381 -32 -684 -190 -860 -450 -242 -358 -270 -1005 -63
-1425 143 -291 386 -463 710 -505 165 -21 361 5 477 63 77 40 169 114 219 178
26 32 50 59 54 59 4 0 11 -57 16 -127 l9 -128 223 -3 222 -2 0 1109 0 1110
-82 25 c-164 50 -355 80 -613 96 -173 11 -176 11 -312 0z m505 -435 l22 -7 0
-697 0 -696 -51 -34 c-174 -114 -427 -162 -602 -116 -204 54 -346 208 -407
440 -49 190 -49 446 0 625 45 163 142 303 267 386 64 42 192 90 280 104 64 10
455 6 491 -5z"/>
<path d="M11285 2520 c-171 -16 -582 -85 -687 -116 -17 -5 -18 -67 -18 -1115
l0 -1109 238 2 237 3 3 941 2 941 38 6 c119 19 293 29 417 24 261 -11 399 -69
469 -197 62 -113 60 -82 63 -938 l4 -782 240 0 240 0 -3 838 -4 837 -26 97
c-78 286 -255 445 -580 523 -181 43 -442 61 -633 45z"/>
<path d="M15489 2520 c-327 -30 -583 -140 -760 -328 -85 -89 -119 -139 -174
-254 -87 -182 -125 -376 -125 -634 1 -424 109 -722 344 -941 111 -104 239
-169 411 -209 107 -25 332 -25 425 -1 116 31 227 93 306 171 39 39 80 84 91
100 l21 30 6 -75 c4 -41 9 -102 13 -136 l5 -63 224 0 224 0 0 1109 0 1109 -72
22 c-166 50 -370 83 -623 100 -165 11 -191 11 -316 0z m494 -436 l27 -6 0
-694 0 -694 -42 -31 c-134 -97 -358 -157 -524 -138 -149 16 -245 60 -341 156
-74 73 -131 184 -165 318 -20 79 -23 115 -23 295 0 183 2 214 23 290 54 201
167 354 317 431 145 75 230 90 495 84 113 -2 217 -7 233 -11z"/>
<path d="M17740 2520 c-181 -17 -442 -59 -622 -101 l-88 -21 0 -1109 0 -1109
240 0 240 0 0 944 0 943 38 6 c118 19 294 29 417 24 307 -12 446 -90 513 -285
15 -41 17 -141 22 -837 l5 -790 243 -3 242 -2 0 809 c0 674 -2 823 -15 895
-73 418 -387 619 -1000 640 -77 2 -183 1 -235 -4z"/>
<path d="M22770 2519 c-197 -22 -410 -105 -538 -209 -172 -141 -288 -354 -344
-632 -31 -154 -33 -490 -4 -643 93 -500 378 -781 881 -871 154 -27 459 -25
630 5 150 26 372 96 385 121 11 21 75 408 69 415 -3 3 -43 -11 -90 -30 -201
-81 -374 -115 -624 -122 -220 -6 -332 13 -460 76 -165 82 -281 250 -319 464
l-7 37 779 0 780 0 6 27 c4 16 9 125 12 243 5 166 2 238 -9 315 -67 432 -313
703 -714 784 -118 24 -316 33 -433 20z m298 -414 c221 -52 356 -227 379 -492
l6 -73 -552 0 c-518 0 -551 1 -551 18 0 9 9 58 19 109 61 295 251 449 556 452
44 0 108 -6 143 -14z"/>
<path d="M25060 2523 c-180 -10 -473 -59 -615 -101 l-60 -18 -3 -1112 -2
-1112 237 2 238 3 3 947 2 946 78 8 c99 11 419 11 543 1 l97 -7 11 63 c6 35
11 129 11 209 l0 146 -47 6 c-66 8 -371 26 -408 24 -16 -1 -55 -3 -85 -5z"/>
</g>
</svg>
